<svg width="30" height="30" viewBox="0 0 30 30" fill="none" xmlns="http://www.w3.org/2000/svg">
<rect width="30" height="30" rx="4" fill="#0BF4C8"/>
<path d="M10.7365 19.3687C10.7365 19.1802 10.5864 19.0278 10.4007 19.0278H5.19572C5.00996 19.0278 4.85986 19.1802 4.85986 19.3687C4.85986 19.5573 5.00997 19.7096 5.19572 19.7096H10.4044C10.5861 19.7096 10.7364 19.5573 10.7364 19.3687H10.7365Z" fill="#292929"/>
<path d="M5.19621 20.4634C5.01045 20.4634 4.86035 20.6157 4.86035 20.8043C4.86035 20.9928 5.01045 21.1452 5.19621 21.1452H8.02574C8.21151 21.1452 8.3616 20.9928 8.3616 20.8043C8.3616 20.6157 8.2115 20.4634 8.02574 20.4634H5.19621Z" fill="#292929"/>
<path d="M22.5173 13.1831C19.5454 13.1831 17.127 15.638 17.127 18.6543C17.127 21.6708 19.5455 24.1256 22.5173 24.1256C25.4891 24.1256 27.9076 21.6707 27.9076 18.6543C27.9076 15.638 25.489 13.1831 22.5173 13.1831ZM22.5173 23.4439C19.9168 23.4439 17.7986 21.2938 17.7986 18.6543C17.7986 16.0148 19.9169 13.8648 22.5173 13.8648C25.1177 13.8648 27.236 16.0149 27.236 18.6543C27.2361 21.2937 25.1218 23.4439 22.5173 23.4439Z" fill="#292929"/>
<path d="M25.7106 16.7328C25.7106 16.3799 25.5761 16.0469 25.3312 15.7981C24.8293 15.2886 24.0072 15.2886 23.4975 15.7981L22.5214 16.7889L21.5412 15.7941C21.0393 15.2927 20.2173 15.2927 19.7115 15.7981C19.4664 16.0469 19.3281 16.3799 19.3281 16.7328C19.3281 17.0857 19.4626 17.4187 19.7115 17.6674L20.6836 18.6582L19.7115 19.6449C19.4664 19.8936 19.3281 20.2266 19.3281 20.5795C19.3281 20.9324 19.4626 21.2615 19.7115 21.5142C20.1778 21.9875 21.0827 21.9875 21.5452 21.5142L22.5214 20.5234L23.4975 21.5142C23.7385 21.7589 24.0744 21.8992 24.4143 21.8992C24.7541 21.8992 25.09 21.7589 25.3311 21.5142C25.5762 21.2654 25.7104 20.9324 25.7104 20.5795C25.7104 20.2266 25.576 19.8936 25.3311 19.6449L24.359 18.6582L25.3311 17.6674C25.5723 17.4148 25.7106 17.0859 25.7106 16.7328L25.7106 16.7328ZM24.8531 17.1821L23.6437 18.4135C23.5133 18.5459 23.5133 18.7625 23.6437 18.8949L24.8531 20.1225C24.9717 20.2429 25.0349 20.4032 25.0349 20.5718C25.0349 20.7402 24.9715 20.9007 24.8531 21.0211C24.6198 21.2578 24.201 21.2578 23.9678 21.0211L22.7546 19.7897C22.6874 19.7215 22.6045 19.6894 22.5175 19.6894C22.4305 19.6894 22.3436 19.7215 22.2805 19.7897L21.0673 21.0211C20.8498 21.2418 20.3994 21.2418 20.1859 21.0211C20.0673 20.9007 20.0002 20.7404 20.0002 20.5718C20.0002 20.4033 20.0673 20.2429 20.1859 20.1225L21.3991 18.8949C21.4624 18.8307 21.4979 18.7426 21.4979 18.6543C21.4979 18.562 21.4624 18.4778 21.3991 18.4137L20.1859 17.1823C20.0673 17.0619 20.0002 16.9016 20.0002 16.733C20.0002 16.5646 20.0673 16.4041 20.1819 16.2837C20.427 16.039 20.8222 16.039 21.0633 16.2796L22.2805 17.511C22.4109 17.6434 22.6243 17.6434 22.7548 17.511L23.9642 16.2835C24.2092 16.0388 24.6084 16.0347 24.8495 16.2835C24.9681 16.4039 25.0312 16.5642 25.0312 16.7328C25.0349 16.9012 24.9716 17.0617 24.8531 17.1821L24.8531 17.1821Z" fill="#292929"/>
<path d="M18.2929 23.1833H5.52017C4.44928 23.1833 3.57979 22.3008 3.57979 21.2138V7.65558C3.57979 6.56861 4.44928 5.68607 5.52017 5.68607H9.64202V9.90601C9.64202 10.1788 9.7803 10.4194 10.0135 10.5559C10.1282 10.624 10.2546 10.6561 10.3811 10.6561C10.5075 10.6561 10.638 10.6201 10.7526 10.5518L12.2425 9.66538C12.2623 9.65337 12.29 9.65337 12.3096 9.66538L13.7995 10.5479C14.0288 10.6844 14.3093 10.6883 14.5385 10.552C14.7718 10.4155 14.9101 10.1749 14.9101 9.90213L14.9099 5.682H19.0317C20.1026 5.682 20.9761 6.56455 20.9761 7.65152V12.2766C20.9761 12.4652 21.1262 12.6175 21.312 12.6175C21.4977 12.6175 21.6478 12.4652 21.6478 12.2766L21.648 7.65152C21.648 6.18743 20.4743 5 19.0319 5L5.52001 5.00018C4.07758 5.00018 2.90771 6.19149 2.90771 7.6517V21.21C2.90771 22.674 4.0814 23.8615 5.52001 23.8615L18.2927 23.8613C18.4785 23.8613 18.6286 23.7089 18.6286 23.5204C18.6288 23.3357 18.4785 23.1834 18.2927 23.1834L18.2929 23.1833ZM14.2383 9.90213C14.2383 9.92614 14.2265 9.94627 14.2067 9.95827C14.183 9.97027 14.1632 9.97027 14.1396 9.95827L12.6497 9.07572C12.535 9.00758 12.4046 8.97139 12.2781 8.97139C12.1477 8.97139 12.0212 9.0074 11.9066 9.07572L10.4167 9.96215C10.3969 9.97415 10.3732 9.97415 10.3496 9.96215C10.3259 9.95014 10.3179 9.93001 10.3179 9.90601V5.68219H14.2422V9.90213H14.2383Z" fill="#292929"/>
<path d="M13.6852 18.4377H16.1434C16.3291 18.4377 16.4792 18.2853 16.4792 18.0968C16.4792 17.9082 16.3291 17.7559 16.1434 17.7559H13.6852C13.2109 17.7559 12.8237 18.149 12.8237 18.6343V20.6401C12.8237 21.1215 13.2111 21.5145 13.6852 21.5145H16.6175C16.8033 21.5145 16.9534 21.3621 16.9534 21.1736C16.9534 20.985 16.8033 20.8327 16.6175 20.8327H13.6852C13.5824 20.8327 13.4995 20.7485 13.4995 20.6441V18.6384C13.4995 18.5259 13.5824 18.4377 13.6852 18.4377Z" fill="#292929"/>
</svg>
