<svg width="17" height="20" viewBox="0 0 17 20" fill="none" xmlns="http://www.w3.org/2000/svg">
<path d="M16.6229 0.458855C16.12 -0.132726 15.3077 -0.132726 14.8049 0.458855L8.5 7.86121L2.19511 0.443686C1.69226 -0.147895 0.879977 -0.147895 0.377133 0.443686C-0.125711 1.03527 -0.125711 1.9909 0.377133 2.58248L6.68203 10L0.377133 17.4175C-0.125711 18.0091 -0.125711 18.9647 0.377133 19.5563C0.879977 20.1479 1.69226 20.1479 2.19511 19.5563L8.5 12.1388L14.8049 19.5563C15.3077 20.1479 16.12 20.1479 16.6229 19.5563C17.1257 18.9647 17.1257 18.0091 16.6229 17.4175L10.318 10L16.6229 2.58248C17.1128 2.00607 17.1128 1.03527 16.6229 0.458855Z" fill="#0B0B0B"/>
</svg>
