<svg width="34" height="34" viewBox="0 0 34 34" fill="none" xmlns="http://www.w3.org/2000/svg">
<path fill-rule="evenodd" clip-rule="evenodd" d="M12.7502 3.14642V9.91667H5.97991C6.11447 9.65515 6.28892 9.41618 6.497 9.20833L12.0418 3.6635C12.2496 3.45492 12.4886 3.2814 12.7502 3.14642ZM15.5835 2.83333V9.91667C15.5835 10.6681 15.285 11.3888 14.7536 11.9201C14.2223 12.4515 13.5016 12.75 12.7502 12.75H5.66683C4.91538 12.75 4.19471 13.0485 3.66336 13.5799C3.13201 14.1112 2.8335 14.8319 2.8335 15.5833V25.5C2.8335 26.2515 3.13201 26.9721 3.66336 27.5035C4.19471 28.0348 4.91538 28.3333 5.66683 28.3333C5.66683 29.0848 5.96534 29.8055 6.49669 30.3368C7.02805 30.8682 7.74872 31.1667 8.50016 31.1667H25.5002C26.2516 31.1667 26.9723 30.8682 27.5036 30.3368C28.035 29.8055 28.3335 29.0848 28.3335 28.3333C29.0849 28.3333 29.8056 28.0348 30.337 27.5035C30.8683 26.9721 31.1668 26.2515 31.1668 25.5V15.5833C31.1668 14.8319 30.8683 14.1112 30.337 13.5799C29.8056 13.0485 29.0849 12.75 28.3335 12.75V5.66667C28.3335 4.91522 28.035 4.19455 27.5036 3.6632C26.9723 3.13184 26.2516 2.83333 25.5002 2.83333H15.5835ZM17.0257 15.3397C16.1876 15.3245 15.375 15.6273 14.7512 16.1872C14.1275 16.747 13.739 17.5224 13.6639 18.3572V18.3685C13.5935 19.2221 13.8591 20.0696 14.4042 20.7303C14.9493 21.391 15.7308 21.8128 16.5822 21.9059L17.3402 21.9895C17.4041 21.9967 17.4685 21.9995 17.5328 21.998C17.596 21.9961 17.6587 22.0098 17.7153 22.0378C17.7719 22.0658 17.8208 22.1073 17.8576 22.1587C17.8944 22.2101 17.918 22.2697 17.9264 22.3323C17.9347 22.395 17.9275 22.4587 17.9054 22.5179L17.8941 22.5463L17.8686 22.6086L17.7581 22.6369C17.6188 22.6573 17.4781 22.6672 17.3373 22.6667H15.7365C15.3608 22.6667 15.0004 22.8159 14.7348 23.0816C14.4691 23.3473 14.3198 23.7076 14.3198 24.0833C14.3198 24.4591 14.4691 24.8194 14.7348 25.0851C15.0004 25.3508 15.3608 25.5 15.7365 25.5H17.3373C17.9281 25.5 18.601 25.4292 19.213 25.1048C19.8788 24.7534 20.318 24.1868 20.5631 23.4983C20.7424 23.0134 20.8023 22.4925 20.7377 21.9797C20.6731 21.4668 20.4859 20.977 20.192 20.5518C19.8981 20.1265 19.5061 19.7783 19.0491 19.5366C18.5922 19.295 18.0837 19.1669 17.5668 19.1633L16.8897 19.0896C16.7729 19.077 16.6656 19.0197 16.5903 18.9296C16.5149 18.8395 16.4775 18.7236 16.4859 18.6065C16.498 18.4863 16.5548 18.375 16.645 18.2947C16.7353 18.2144 16.8525 18.171 16.9732 18.173L18.3049 18.2013C18.6806 18.2094 19.0442 18.0679 19.3156 17.8079C19.587 17.548 19.744 17.1909 19.752 16.8151C19.7601 16.4394 19.6186 16.0759 19.3586 15.8045C19.0987 15.5331 18.7416 15.3761 18.3658 15.368L17.0299 15.3397H17.0257ZM28.2641 17.4392C28.3806 17.0819 28.3503 16.6929 28.18 16.3579C28.0097 16.0229 27.7133 15.7692 27.356 15.6528C26.9987 15.5363 26.6097 15.5665 26.2747 15.7368C25.9397 15.9071 25.6861 16.2035 25.5696 16.5608L24.7621 19.0358L24.0226 16.5906C23.9069 16.2396 23.6586 15.9477 23.3308 15.7772C23.0029 15.6067 22.6214 15.571 22.2676 15.6779C21.9138 15.7847 21.6158 16.0256 21.4371 16.3491C21.2584 16.6725 21.2132 17.0531 21.3111 17.4094L23.3553 24.1712C23.4425 24.4599 23.6195 24.7132 23.8606 24.8943C24.1018 25.0754 24.3944 25.1749 24.6959 25.1782C24.9975 25.1815 25.2922 25.0885 25.5372 24.9128C25.7823 24.737 25.9648 24.4876 26.0583 24.2009L28.2641 17.4392ZM8.76791 18.6858C8.94013 18.5139 9.1734 18.4171 9.41675 18.4167H10.8589C11.2346 18.4167 11.595 18.2674 11.8606 18.0017C12.1263 17.7361 12.2756 17.3757 12.2756 17C12.2756 16.6243 12.1263 16.2639 11.8606 15.9983C11.595 15.7326 11.2346 15.5833 10.8589 15.5833H9.41675C8.42221 15.5833 7.4684 15.9784 6.76516 16.6817C6.06191 17.3849 5.66683 18.3387 5.66683 19.3333V21.7501C5.66683 22.7446 6.06191 23.6984 6.76516 24.4017C7.4684 25.1049 8.42221 25.5 9.41675 25.5H10.8589C11.2346 25.5 11.595 25.3508 11.8606 25.0851C12.1263 24.8194 12.2756 24.4591 12.2756 24.0833C12.2756 23.7076 12.1263 23.3473 11.8606 23.0816C11.595 22.8159 11.2346 22.6667 10.8589 22.6667H9.41675C9.17365 22.6667 8.94052 22.5701 8.76862 22.3982C8.59673 22.2263 8.50016 21.9932 8.50016 21.7501V19.3333C8.50016 19.0896 8.59508 18.8573 8.76791 18.6858Z" fill="black"/>
</svg>
