<svg width="18" height="18" viewBox="0 0 18 18" fill="none" xmlns="http://www.w3.org/2000/svg">
<path d="M10.4504 11.9161H9.983V8.18573C9.983 8.02111 9.91761 7.86324 9.80121 7.74684C9.68481 7.63043 9.52693 7.56504 9.36231 7.56504H7.5499C7.38528 7.56504 7.22741 7.63043 7.11101 7.74684C6.9946 7.86324 6.92921 8.02111 6.92921 8.18573C6.92921 8.35035 6.9946 8.50822 7.11101 8.62462C7.22741 8.74103 7.38528 8.80642 7.5499 8.80642H8.74162V11.9161H7.5499C7.38528 11.9161 7.22741 11.9815 7.11101 12.0979C6.9946 12.2143 6.92921 12.3721 6.92921 12.5368C6.92921 12.7014 6.9946 12.8593 7.11101 12.9757C7.22741 13.0921 7.38528 13.1575 7.5499 13.1575H10.4504C10.615 13.1575 10.7729 13.0921 10.8893 12.9757C11.0057 12.8593 11.0711 12.7014 11.0711 12.5368C11.0711 12.3721 11.0057 12.2143 10.8893 12.0979C10.7729 11.9815 10.615 11.9161 10.4504 11.9161ZM8.99983 6.21504C9.18397 6.21504 9.36398 6.16044 9.51709 6.05813C9.67019 5.95583 9.78953 5.81042 9.85999 5.6403C9.93046 5.47017 9.9489 5.28297 9.91298 5.10237C9.87705 4.92177 9.78838 4.75587 9.65817 4.62567C9.52797 4.49546 9.36207 4.40679 9.18147 4.37086C9.00086 4.33494 8.81366 4.35338 8.64354 4.42384C8.47342 4.49431 8.32801 4.61364 8.2257 4.76675C8.1234 4.91986 8.0688 5.09986 8.0688 5.28401C8.0688 5.53093 8.16689 5.76774 8.34149 5.94235C8.51609 6.11695 8.75291 6.21504 8.99983 6.21504ZM8.99983 1.24146C6.94282 1.24376 4.97072 2.06192 3.5162 3.51644C2.06167 4.97097 1.24351 6.94307 1.24121 9.00008C1.24466 11.0567 2.06319 13.0282 3.51746 14.4824C4.97174 15.9367 6.94318 16.7552 8.99983 16.7587C11.0575 16.7587 13.031 15.9413 14.486 14.4862C15.941 13.0312 16.7585 11.0578 16.7585 9.00008C16.7585 6.94236 15.941 4.96893 14.486 3.5139C13.031 2.05888 11.0575 1.24146 8.99983 1.24146ZM13.5495 13.659C12.4729 14.7079 11.0666 15.352 9.56913 15.4822C8.07169 15.6123 6.57534 15.2204 5.33396 14.3729C4.09257 13.5254 3.1826 12.2745 2.75843 10.8325C2.33426 9.39055 2.42201 7.84622 3.00679 6.46156C3.59157 5.07689 4.63738 3.93717 5.96677 3.23576C7.29616 2.53435 8.82728 2.31444 10.3003 2.61335C11.7734 2.91225 13.0977 3.71157 14.0486 4.87567C14.9994 6.03978 15.5183 7.49699 15.5171 9.00008C15.5192 9.86904 15.3461 10.7295 15.008 11.53C14.6699 12.3305 14.1738 13.0546 13.5495 13.659Z" fill="#0BB2F4"/>
</svg>
