<svg width="30" height="30" viewBox="0 0 30 30" fill="none" xmlns="http://www.w3.org/2000/svg">
<path d="M26.5662 19.8626C25.771 21.7432 24.5272 23.4004 22.9436 24.6892C21.3599 25.9781 19.4847 26.8594 17.4818 27.2561C15.4789 27.6528 13.4093 27.5528 11.4539 26.9648C9.49856 26.3769 7.71701 25.3189 6.265 23.8834C4.81299 22.4479 3.73474 20.6785 3.12452 18.73C2.5143 16.7815 2.39068 14.7132 2.76447 12.7059C3.13827 10.6986 3.9981 8.81338 5.26878 7.21513C6.53947 5.61689 8.18233 4.35424 10.0537 3.5376" fill="#A36BFD"/>
<path d="M26.5662 19.8626C25.771 21.7432 24.5272 23.4004 22.9436 24.6892C21.3599 25.9781 19.4847 26.8594 17.4818 27.2561C15.4789 27.6528 13.4093 27.5528 11.4539 26.9648C9.49856 26.3769 7.71701 25.3189 6.265 23.8834C4.81299 22.4479 3.73474 20.6785 3.12452 18.73C2.5143 16.7815 2.39068 14.7132 2.76447 12.7059C3.13827 10.6986 3.9981 8.81338 5.26878 7.21513C6.53947 5.61689 8.18233 4.35424 10.0537 3.5376" stroke="white" stroke-linecap="round" stroke-linejoin="round"/>
<path d="M27.5 15C27.5 13.3585 27.1767 11.733 26.5485 10.2165C25.9203 8.69989 24.9996 7.3219 23.8388 6.16117C22.6781 5.00043 21.3001 4.07969 19.7835 3.45151C18.267 2.82332 16.6415 2.5 15 2.5V15H27.5Z" fill="#60CDAC" stroke="white" stroke-linecap="round" stroke-linejoin="round"/>
</svg>
