<svg width="31" height="30" viewBox="0 0 31 30" fill="none" xmlns="http://www.w3.org/2000/svg">
<rect x="0.5" width="30" height="30" rx="4" fill="#FAD85D"/>
<path d="M19.4397 13.0888H13.3071C13.0688 13.0888 12.8755 12.9118 12.8755 12.6933C12.8755 12.4749 13.0687 12.2979 13.3071 12.2979H19.4394C19.6778 12.2979 19.8711 12.4749 19.8711 12.6933C19.8711 12.9118 19.6778 13.0888 19.4396 13.0888H19.4397Z" fill="#292929"/>
<path d="M19.4397 15.9618H13.3071C13.0688 15.9618 12.8755 15.7848 12.8755 15.5664C12.8755 15.348 13.0687 15.1709 13.3071 15.1709H19.4394C19.6778 15.1709 19.8711 15.3479 19.8711 15.5664C19.8711 15.7848 19.6778 15.9618 19.4396 15.9618H19.4397Z" fill="#292929"/>
<path d="M13.3706 18.6496C13.1322 18.6496 12.939 18.4726 12.939 18.2541C12.939 18.0357 13.1322 17.8586 13.3706 17.8586C15.6802 17.8586 17.6314 16.7554 17.6314 15.4496C17.6314 14.1437 15.6802 13.0404 13.3706 13.0404C13.1322 13.0404 12.939 12.8634 12.939 12.645C12.939 12.4266 13.1322 12.2495 13.3706 12.2495C16.244 12.2495 18.4948 13.6552 18.4948 15.4495C18.4948 17.2438 16.244 18.6495 13.3706 18.6495V18.6496Z" fill="#292929"/>
<path d="M17.9824 23.3009C17.8674 23.3009 17.7528 23.2591 17.6677 23.1764L13.1098 18.7336C12.9465 18.5743 12.955 18.3241 13.1287 18.1746C13.3024 18.0251 13.5754 18.0329 13.7388 18.1919L18.2967 22.6347C18.46 22.7939 18.4515 23.0442 18.2778 23.1937C18.1945 23.2654 18.0883 23.3009 17.9822 23.3009L17.9824 23.3009Z" fill="#292929"/>
<path d="M4.53206 15.2112H6.61586V26.3248C6.61586 26.7138 6.92149 27.0194 7.31046 27.0194H25.37C25.759 27.0194 26.0646 26.7138 26.0646 26.3248V15.2112H28.1484C28.7597 15.2112 29.0653 14.461 28.6484 14.0166L16.8402 2.20844C16.5623 1.93052 16.1179 1.93052 15.8677 2.20844L4.03225 14.0166C3.61538 14.461 3.921 15.2112 4.53226 15.2112H4.53206ZM16.3402 3.68089L26.4814 13.822H25.3701C24.9812 13.822 24.6755 14.1277 24.6755 14.5166V25.6302H8.00515V14.5166C8.00515 14.1277 7.69952 13.822 7.31055 13.822H6.1993L16.3402 3.68089Z" fill="#292929"/>
</svg>
